<svg width="36" height="29" viewBox="0 0 36 29" fill="none" xmlns="http://www.w3.org/2000/svg">
<path d="M17.152 1.44826V0.556897C17.152 0.249262 17.3982 0 17.7018 0C18.0053 0 18.2515 0.249262 18.2515 0.556897V1.44826C18.2515 1.75589 18.0053 2.00516 17.7018 2.00516C17.3982 2.00516 17.152 1.75589 17.152 1.44826ZM17.7018 5.71781C18.0053 5.71781 18.2515 5.46854 18.2515 5.16091V4.26955C18.2515 3.96191 18.0053 3.71265 17.7018 3.71265C17.3982 3.71265 17.152 3.96191 17.152 4.26955V5.16091C17.152 5.46854 17.3982 5.71781 17.7018 5.71781ZM19.0944 3.41589H19.9742C20.2777 3.41589 20.524 3.16663 20.524 2.85899C20.524 2.55136 20.2777 2.3021 19.9742 2.3021H19.0944C18.7909 2.3021 18.5447 2.55136 18.5447 2.85899C18.5447 3.16663 18.7909 3.41589 19.0944 3.41589ZM15.4293 3.41589H16.3091C16.6126 3.41589 16.8589 3.16663 16.8589 2.85899C16.8589 2.55136 16.6126 2.3021 16.3091 2.3021H15.4293C15.1258 2.3021 14.8796 2.55136 14.8796 2.85899C14.8796 3.16663 15.1258 3.41589 15.4293 3.41589ZM7.99537 5.1794C8.29888 5.1794 8.54513 4.93014 8.54513 4.6225V3.73114C8.54513 3.42351 8.29888 3.17424 7.99537 3.17424C7.69185 3.17424 7.4456 3.42351 7.4456 3.73114V4.6225C7.4456 4.93014 7.69185 5.1794 7.99537 5.1794ZM7.99537 8.89205C8.29888 8.89205 8.54513 8.64279 8.54513 8.33515V7.44379C8.54513 7.13615 8.29888 6.88689 7.99537 6.88689C7.69185 6.88689 7.4456 7.13615 7.4456 7.44379V8.33515C7.4456 8.64279 7.69185 8.89205 7.99537 8.89205ZM9.38803 6.59013H10.2678C10.5713 6.59013 10.8176 6.34087 10.8176 6.03324C10.8176 5.7256 10.5713 5.47634 10.2678 5.47634H9.38803C9.08451 5.47634 8.83827 5.7256 8.83827 6.03324C8.83827 6.34087 9.08451 6.59013 9.38803 6.59013ZM5.72294 6.59013H6.60271C6.90622 6.59013 7.15247 6.34087 7.15247 6.03324C7.15247 5.7256 6.90622 5.47634 6.60271 5.47634H5.72294C5.41943 5.47634 5.17318 5.7256 5.17318 6.03324C5.17318 6.34087 5.41943 6.59013 5.72294 6.59013ZM26.5201 6.66446C27.0261 6.66446 27.4364 6.24892 27.4364 5.7363C27.4364 5.22368 27.0261 4.80814 26.5201 4.80814C26.014 4.80814 25.6038 5.22368 25.6038 5.7363C25.6038 6.24892 26.014 6.66446 26.5201 6.66446ZM33.1778 10.08C33.4813 10.08 33.7276 9.83073 33.7276 9.52309V8.63191C33.7276 8.32428 33.4813 8.07501 33.1778 8.07501C32.8743 8.07501 32.628 8.32428 32.628 8.63191V9.52309C32.628 9.83073 32.8743 10.08 33.1778 10.08ZM33.1778 13.7926C33.4813 13.7926 33.7276 13.5434 33.7276 13.2357V12.3446C33.7276 12.0369 33.4813 11.7877 33.1778 11.7877C32.8743 11.7877 32.628 12.0369 32.628 12.3446V13.2357C32.628 13.5434 32.8743 13.7926 33.1778 13.7926ZM35.4502 10.3769H34.5705C34.267 10.3769 34.0207 10.6262 34.0207 10.9338C34.0207 11.2415 34.267 11.4907 34.5705 11.4907H35.4502C35.7538 11.4907 36 11.2415 36 10.9338C36 10.6262 35.7538 10.3769 35.4502 10.3769ZM30.905 11.4907H31.7851C32.0887 11.4907 32.3349 11.2415 32.3349 10.9338C32.3349 10.6262 32.0887 10.3769 31.7851 10.3769H30.905C30.6015 10.3769 30.3553 10.6262 30.3553 10.9338C30.3553 11.2415 30.6015 11.4907 30.905 11.4907ZM1.42246 13.7664C1.92849 13.7664 2.33873 13.3509 2.33873 12.8382C2.33873 12.3256 1.92849 11.9101 1.42246 11.9101C0.916406 11.9101 0.506187 12.3256 0.506187 12.8382C0.506187 13.3509 0.916406 13.7664 1.42246 13.7664ZM18.0822 11.9753H17.0557C16.7522 11.9753 16.506 12.2246 16.506 12.5322C16.506 12.8398 16.7522 13.0891 17.0557 13.0891H18.0822C18.3857 13.0891 18.632 12.8398 18.632 12.5322C18.632 12.2246 18.3857 11.9753 18.0822 11.9753ZM21.7473 12.8663H20.7208C20.4173 12.8663 20.171 13.1156 20.171 13.4232C20.171 13.7308 20.4173 13.9801 20.7208 13.9801H21.7473C22.0508 13.9801 22.2971 13.7308 22.2971 13.4232C22.2971 13.1156 22.0508 12.8663 21.7473 12.8663ZM14.4171 12.8663H13.3906C13.0871 12.8663 12.8409 13.1156 12.8409 13.4232C12.8409 13.7308 13.0871 13.9801 13.3906 13.9801H14.4171C14.7207 13.9801 14.9669 13.7308 14.9669 13.4232C14.9669 13.1156 14.7207 12.8663 14.4171 12.8663ZM20.4041 24.7932C20.4041 25.8823 19.5028 26.7684 18.3954 26.7684C18.1109 26.7684 17.8274 26.7082 17.569 26.5933C17.3106 26.7079 17.0271 26.7684 16.7422 26.7684C15.6348 26.7684 14.7339 25.8823 14.7339 24.7932C14.7339 24.208 14.9912 23.6649 15.4429 23.2885C15.6523 22.1214 16.5378 21.2821 17.569 21.2821C18.6005 21.2821 19.486 22.1222 19.6947 23.2885C20.1467 23.6645 20.4041 24.208 20.4041 24.7932ZM19.3045 24.7932C19.3045 24.5314 19.1803 24.287 18.9634 24.1224C18.9631 24.1224 18.9631 24.1221 18.9627 24.1221C18.7802 23.9832 18.6581 23.7711 18.6191 23.5253C18.5164 22.8705 18.0747 22.3959 17.569 22.3959C17.0632 22.3959 16.6212 22.8709 16.5185 23.5249C16.4805 23.7697 16.3585 23.9825 16.1752 24.1221C15.9576 24.287 15.8334 24.5314 15.8334 24.7932C15.8334 25.2681 16.2411 25.6546 16.7422 25.6546C16.8957 25.6546 17.0414 25.6195 17.1756 25.5498C17.2987 25.4864 17.434 25.4545 17.569 25.4545C17.7043 25.4545 17.8388 25.486 17.962 25.5498C18.0965 25.6195 18.2422 25.6546 18.3954 25.6546C18.8969 25.6546 19.3045 25.2681 19.3045 24.7932ZM14.4708 18.9998C14.4708 17.787 15.1029 16.8723 15.9415 16.8723C16.7798 16.8723 17.4119 17.787 17.4119 18.9998C17.4119 20.2125 16.7798 21.1273 15.9415 21.1273C15.1029 21.1273 14.4708 20.2125 14.4708 18.9998ZM15.5704 18.9998C15.5704 19.6756 15.8707 20.0135 15.9415 20.0135C16.0124 20.0135 16.3123 19.6756 16.3123 18.9998C16.3123 18.324 16.0124 17.986 15.9415 17.986C15.8707 17.986 15.5704 18.324 15.5704 18.9998ZM17.7257 18.9998C17.7257 17.787 18.3578 16.8723 19.1964 16.8723C20.0347 16.8723 20.6668 17.787 20.6668 18.9998C20.6668 20.2125 20.0347 21.1273 19.1964 21.1273C18.3578 21.1273 17.7257 20.2125 17.7257 18.9998ZM18.8253 18.9998C18.8253 19.6756 19.1256 20.0135 19.1964 20.0135C19.2673 20.0135 19.5672 19.6756 19.5672 18.9998C19.5672 18.324 19.2673 17.986 19.1964 17.986C19.1256 17.986 18.8253 18.324 18.8253 18.9998ZM23.1153 22.571C22.8511 23.2171 22.3952 23.7211 21.8955 23.9198C21.7348 23.9839 21.5741 24.0158 21.4173 24.0158C21.2537 24.0158 21.0948 23.981 20.9452 23.9114C20.1897 23.5605 19.9602 22.4633 20.4116 21.3601C20.6754 20.7143 21.1313 20.2104 21.631 20.0117C21.9596 19.8808 22.2885 19.8837 22.5813 20.0197C23.3368 20.3714 23.5666 21.4681 23.1153 22.571ZM22.1231 21.0319C22.1203 21.0309 22.1156 21.0301 22.1088 21.0301C22.0934 21.0301 22.0673 21.0345 22.0329 21.0483C21.8522 21.12 21.5952 21.376 21.4273 21.7864C21.1779 22.3959 21.3135 22.8571 21.4037 22.8991C21.413 22.9028 21.4442 22.9024 21.4939 22.8832C21.6743 22.8114 21.9316 22.5551 22.0995 22.1446C22.3486 21.5363 22.2133 21.0751 22.1231 21.0319ZM14.192 23.9114C14.0428 23.981 13.8838 24.0158 13.7206 24.0158C13.5642 24.0158 13.4035 23.9839 13.2428 23.9201C12.7432 23.7218 12.2868 23.2175 12.0223 22.571C11.571 21.467 11.8008 20.3703 12.5567 20.0197C12.8502 19.883 13.1787 19.8808 13.5066 20.0113C14.0066 20.2104 14.4626 20.7143 14.7264 21.3601C15.1777 22.4641 14.9479 23.5608 14.192 23.9114ZM13.7106 21.7864C13.5427 21.376 13.2854 21.12 13.105 21.0483C13.0703 21.0345 13.0445 21.0298 13.0291 21.0298C13.0223 21.0298 13.0177 21.0309 13.0148 21.0319C12.9246 21.074 12.789 21.5352 13.0381 22.1446C13.2059 22.5554 13.4636 22.8114 13.644 22.8832C13.6927 22.9028 13.7242 22.9039 13.7335 22.8991C13.8241 22.8571 13.9597 22.3959 13.7106 21.7864ZM35.1378 28.4431C35.1378 28.7506 34.8915 29 34.588 29H0.549763C0.246069 29 0 28.7506 0 28.4431C0 28.1356 0.246069 27.8862 0.549763 27.8862H1.78L3.67242 15.7374C3.77121 15.1019 4.30415 14.6407 4.93946 14.6407H7.09592C9.09639 12.141 13.027 10.0423 17.569 10.0423C22.1107 10.0423 26.0412 12.141 28.0417 14.6407H30.1985C30.8338 14.6407 31.3667 15.1019 31.4655 15.7374L33.3576 27.8862H34.588C34.8915 27.8862 35.1378 28.1356 35.1378 28.4431ZM8.58235 14.6407H26.5554C24.6748 12.7575 21.456 11.1561 17.569 11.1561C13.682 11.1561 10.463 12.7575 8.58235 14.6407ZM32.2447 27.8862L30.3796 15.9107C30.3653 15.8201 30.2894 15.7545 30.1985 15.7545H4.93946C4.84855 15.7545 4.77267 15.8201 4.75835 15.9107L2.8929 27.8862H32.2447Z" fill="black"/>
</svg>
