<svg width="27" height="27" viewBox="0 0 27 27" fill="none" xmlns="http://www.w3.org/2000/svg">
<path d="M14.4163 8.94897C14.4372 8.90573 14.4485 8.86595 14.4565 8.83515L14.61 8.19353C14.8354 8.18119 15.0133 7.9937 15.0101 7.76506C15.0068 7.53286 14.8182 7.3468 14.5873 7.3468C14.5853 7.3468 14.5834 7.3468 14.5812 7.3468C14.3392 7.35067 14.1575 7.29569 14.0535 7.18464C13.9637 7.08897 13.9304 6.95358 13.9185 6.84935L14.3637 6.24976C14.4287 6.16151 14.4389 6.04403 14.3903 5.94584C14.341 5.84737 14.2409 5.78551 14.1312 5.78551H12.8485C12.7388 5.78551 12.6387 5.84737 12.5895 5.94584C12.5408 6.04403 12.551 6.16151 12.616 6.24976L13.0611 6.84922C13.0493 6.95356 13.0159 7.08905 12.9263 7.18478C12.8221 7.29583 12.6451 7.3515 12.3985 7.3468C12.1656 7.35053 11.9731 7.53079 11.9696 7.76506C11.9664 7.99371 12.1443 8.18121 12.3697 8.19353L12.5237 8.83667C12.5301 8.86333 12.5413 8.90407 12.563 8.94841C12.6177 9.06126 12.8447 9.42662 13.4715 9.42662C13.4765 9.42662 13.4815 9.42662 13.4866 9.42662C14.1333 9.43242 14.3612 9.06237 14.4163 8.94897ZM13.7769 8.64577C13.7487 8.6763 13.6635 8.71801 13.4866 8.71939C13.3084 8.72492 13.2299 8.67588 13.203 8.64688L13.0674 8.08065C13.2505 8.00868 13.389 7.91301 13.4899 7.81765C13.5907 7.91298 13.7292 8.00863 13.9121 8.08058L13.7769 8.64577ZM12.1334 5.50775C12.0305 5.50775 11.9274 5.47031 11.8459 5.39448C11.2857 4.87263 10.5417 5.25773 10.5104 5.27444C10.3051 5.38371 10.0492 5.30663 9.93893 5.10109C9.82895 4.89556 9.90355 4.64015 10.1075 4.52841C10.1601 4.49926 11.4104 3.83154 12.4213 4.77234C12.5923 4.93175 12.6024 5.20027 12.4436 5.3721C12.3603 5.46216 12.247 5.50775 12.1334 5.50775ZM14.5363 5.3721C14.3775 5.20041 14.3874 4.93188 14.5586 4.77248C15.5687 3.83154 16.8196 4.49926 16.8722 4.52841C17.0773 4.64071 17.1527 4.89846 17.0407 5.10413C16.9289 5.30925 16.6729 5.3844 16.4689 5.27431C16.4326 5.25497 15.6923 4.87484 15.134 5.39434C15.0525 5.47017 14.9493 5.50775 14.8463 5.50775C14.7329 5.50775 14.6197 5.46216 14.5363 5.3721ZM25.993 14.5932H19.1774C19.2045 13.4529 19.0615 12.3118 18.7357 11.1793C18.5343 10.4789 18.1506 9.86259 17.6437 9.37361C18.3007 8.9073 18.8119 8.3321 19.1304 7.68738L20.5121 7.96272C20.5399 7.96825 20.5675 7.97101 20.595 7.97101C20.7927 7.97101 20.9691 7.83108 21.0093 7.62914C21.0547 7.39929 20.9058 7.17594 20.6768 7.13035L19.4154 6.87901C19.4663 6.64642 19.4999 6.40956 19.4999 6.16648C19.4999 6.05757 19.4939 5.949 19.4833 5.84081L20.6768 5.60305C20.9058 5.55747 21.0547 5.33412 21.0093 5.10427C20.9633 4.87415 20.7395 4.72497 20.5121 4.77069L19.2919 5.01378C19.2704 4.95405 19.2514 4.89392 19.2265 4.83478C19.1756 4.44194 19.0649 4.05255 18.8975 3.67656C18.8582 3.58775 18.8392 3.4818 18.8417 3.36218L18.892 0.843113C18.8973 0.579286 18.7753 0.326647 18.5655 0.167384C18.3555 0.00812087 18.0799 -0.0413295 17.8288 0.0356086L15.3699 0.785375C14.152 0.433145 12.8273 0.43356 11.6098 0.785513L9.1509 0.0356085C8.89942 -0.0410534 8.62413 0.00812074 8.41435 0.167246C8.20458 0.326509 8.08249 0.57901 8.08772 0.843113L8.13823 3.36177C8.14044 3.48139 8.12158 3.58747 8.08207 3.67656C7.91442 4.05338 7.80403 4.44277 7.75337 4.83492C7.72851 4.89404 7.7095 4.95412 7.68799 5.01381L6.46761 4.77069C6.23802 4.72524 6.01613 4.87442 5.97057 5.10427C5.92501 5.33412 6.07394 5.55747 6.30299 5.60305L7.49644 5.84081C7.48582 5.949 7.47987 6.05759 7.47987 6.16648C7.47987 6.40956 7.51345 6.6464 7.56438 6.87899L6.30299 7.13035C6.07394 7.17594 5.92501 7.39929 5.97057 7.62914C6.01049 7.83122 6.18723 7.97101 6.38489 7.97101C6.41214 7.97101 6.43981 7.96825 6.46761 7.96272L7.8494 7.68738C8.16786 8.33211 8.67913 8.9073 9.33616 9.37361C8.82927 9.86255 8.44553 10.4788 8.24408 11.1793C7.91829 12.3118 7.77521 13.4529 7.80234 14.5932H0.986653C0.442672 14.5932 0 15.0374 0 15.5833V16.9367C0 17.4826 0.442672 17.9268 0.986653 17.9268H1.01413L1.78611 26.1033C1.83428 26.6143 2.25658 27 2.76835 27H24.2113C24.7228 27 25.1451 26.6146 25.1935 26.1033L25.9655 17.9268H25.993C26.5369 17.9268 26.9796 17.4826 26.9796 16.9367V15.5833C26.9796 15.0374 26.5369 14.5932 25.993 14.5932ZM8.70599 7.51668L9.40183 7.37802C9.63088 7.33244 9.77981 7.10908 9.73425 6.87923C9.68883 6.64939 9.46653 6.50021 9.23721 6.54565L8.39183 6.7141C8.35234 6.53505 8.32557 6.35312 8.32557 6.16648C8.32557 6.11346 8.3307 6.06063 8.33411 6.00771L9.23721 6.18762C9.26501 6.19314 9.29268 6.19591 9.31993 6.19591C9.51759 6.19591 9.69433 6.05598 9.73425 5.85404C9.77981 5.62419 9.63088 5.40083 9.40183 5.35525L8.52843 5.18124C8.53701 5.16051 8.54329 5.13944 8.55241 5.11877C8.56976 5.07927 8.58118 5.03741 8.586 4.99446C8.62261 4.66723 8.71291 4.34028 8.85441 4.02216C8.94498 3.81815 8.98848 3.59037 8.98366 3.34491L8.93383 0.856374L11.4858 1.6346C11.5667 1.65946 11.653 1.65891 11.7337 1.63404C12.8667 1.28209 14.1127 1.28223 15.246 1.6339C15.3267 1.65891 15.4129 1.65932 15.4941 1.63446L18.0458 0.856374L17.996 3.34533C17.9913 3.59106 18.0348 3.81897 18.1256 4.02272C18.2666 4.33958 18.3569 4.66668 18.394 4.99473C18.3987 5.03755 18.41 5.07941 18.4276 5.11877C18.4367 5.13941 18.443 5.16047 18.4515 5.18119L17.5778 5.35525C17.3487 5.40083 17.1998 5.62419 17.2452 5.85404C17.2854 6.05598 17.4619 6.19591 17.6595 6.19591C17.6871 6.19591 17.7146 6.19314 17.7424 6.18762L18.6456 6.00769C18.6491 6.06061 18.6542 6.11344 18.6542 6.16648C18.6542 6.35312 18.6274 6.53508 18.5879 6.71413L17.7424 6.54565C17.5158 6.50103 17.2909 6.64925 17.2452 6.87923C17.1998 7.10908 17.3487 7.33244 17.5778 7.37802L18.2738 7.5167C17.5057 8.83392 15.6523 9.766 13.4899 9.766C11.3275 9.766 9.47413 8.8339 8.70599 7.51668ZM9.05661 11.4147C9.23784 10.7843 9.60102 10.2357 10.0872 9.82916C11.0556 10.3235 12.2272 10.6147 13.4899 10.6147C14.7527 10.6147 15.9242 10.3235 16.8926 9.82921C17.3786 10.2357 17.7418 10.7844 17.923 11.4147C18.2264 12.4691 18.3584 13.5315 18.3311 14.5932H8.64852C8.62124 13.5315 8.75324 12.4691 9.05661 11.4147ZM24.3517 26.0231C24.3448 26.0961 24.2845 26.1513 24.2113 26.1513H2.76835C2.69526 26.1513 2.63484 26.0964 2.62795 26.0231L1.8636 17.9268H25.1161L24.3517 26.0231ZM26.1339 16.9367C26.1339 17.0146 26.0706 17.0782 25.993 17.0782H0.986653C0.908882 17.0782 0.845702 17.0146 0.845702 16.9367V15.5833C0.845702 15.5054 0.908882 15.4419 0.986653 15.4419H25.993C26.0706 15.4419 26.1339 15.5054 26.1339 15.5833V16.9367ZM11.96 25.1712H15.0198C15.6529 25.1712 16.168 24.6543 16.168 24.0189V23.8274C16.168 23.408 15.9412 23.0439 15.6065 22.8423C15.6712 22.6982 15.7091 22.5396 15.7091 22.3716V22.1801C15.7091 21.7657 15.488 21.4048 15.16 21.2018C15.8336 20.1024 15.1019 18.8852 15.0685 18.8316C14.9853 18.6968 14.8405 18.6211 14.6754 18.6321C14.5176 18.6448 14.38 18.7451 14.3189 18.8918C14.25 19.0576 14.1677 19.1924 14.0741 19.2924C14.0215 19.3485 13.945 19.3808 13.8643 19.3808H12.8777C12.2445 19.3808 11.7294 19.8977 11.7294 20.5331V20.7242C11.7294 20.8923 11.7674 21.0509 11.8321 21.195C11.4974 21.3966 11.2707 21.7607 11.2707 22.1801V22.3716C11.2707 22.5396 11.3086 22.6982 11.3733 22.8423C11.0386 23.0438 10.8117 23.408 10.8117 23.8274V24.0189C10.8117 24.6543 11.3268 25.1712 11.96 25.1712ZM12.5751 20.5331C12.5751 20.3656 12.7109 20.2294 12.8777 20.2294H13.8643C14.1297 20.2294 14.3863 20.1363 14.5873 19.9703C14.6244 20.2477 14.5936 20.5681 14.3789 20.8524C14.3714 20.8624 14.3643 20.8729 14.3577 20.8834C14.3012 20.974 14.2057 21.0278 14.1019 21.0278H12.8777C12.7109 21.0278 12.5751 20.8916 12.5751 20.7242V20.5331ZM12.1164 22.1801C12.1164 22.0127 12.2521 21.8765 12.4189 21.8765H12.8777H14.1019H14.5608C14.7277 21.8765 14.8634 22.0127 14.8634 22.1801V22.3716C14.8634 22.539 14.7277 22.6752 14.5608 22.6752H12.4189C12.2521 22.6752 12.1164 22.539 12.1164 22.3716V22.1801ZM11.6575 23.8274C11.6575 23.66 11.7932 23.5238 11.96 23.5238H12.4189H14.5608H15.0198C15.1866 23.5238 15.3223 23.66 15.3223 23.8274V24.0189C15.3223 24.1863 15.1866 24.3225 15.0198 24.3225H11.96C11.7932 24.3225 11.6575 24.1863 11.6575 24.0189V23.8274ZM21.5828 11.3845L23.482 13.0898C23.6403 13.2319 23.8385 13.3029 24.037 13.3029C24.2355 13.3029 24.4337 13.2319 24.592 13.0898L26.4912 11.3845C26.4995 11.3773 26.5072 11.3697 26.5146 11.3618C27.144 10.7029 27.1635 9.68851 26.5603 9.00201C26.3112 8.71898 25.9778 8.5314 25.5965 8.45985C25.0955 8.36675 24.5667 8.51731 24.1449 8.87424L24.037 8.96554L23.9294 8.87465C23.5076 8.51773 22.9793 8.36647 22.4786 8.45971C22.0965 8.53112 21.7628 8.7187 21.5134 9.00215C20.9102 9.68865 20.93 10.7031 21.5594 11.3619C21.5668 11.3698 21.5748 11.3773 21.5828 11.3845ZM22.1477 9.56364C22.2707 9.42372 22.4386 9.33048 22.6333 9.29401C22.8783 9.24843 23.1602 9.33366 23.3843 9.52345L23.7595 9.84087C23.912 9.96988 24.162 9.96988 24.3145 9.84087L24.69 9.52303C24.9141 9.33338 25.1949 9.24788 25.4413 9.29415C25.6354 9.33062 25.8033 9.42386 25.9263 9.56364C26.233 9.9127 26.2267 10.4267 25.9134 10.7647L24.0458 12.4575L22.1598 10.7638C21.847 10.426 21.841 9.91256 22.1477 9.56364Z" fill="black"/>
</svg>
