<svg width="22" height="27" viewBox="0 0 22 27" fill="none" xmlns="http://www.w3.org/2000/svg">
<path d="M20.9315 1.45384H14.8161V1.01195C14.8161 0.454024 14.3367 0 13.7476 0H8.25255C7.66346 0 7.18407 0.454024 7.18407 1.01195V1.45384H1.06848C0.479385 1.45384 0 1.90786 0 2.46579V25.988C0 26.546 0.479385 27 1.06848 27H20.9315C21.5206 27 22 26.546 22 25.988V2.46579C22 1.90786 21.5206 1.45384 20.9315 1.45384ZM8.09991 1.01195C8.09991 0.932188 8.16848 0.867388 8.25255 0.867388H13.7476C13.8317 0.867388 13.9002 0.932188 13.9002 1.01195V2.84908C13.9002 2.92885 13.8317 2.99365 13.7476 2.99365H8.25255C8.16848 2.99365 8.09991 2.92885 8.09991 2.84908V1.01195ZM21.0842 25.988C21.0842 26.0677 21.0156 26.1326 20.9315 26.1326H1.06848C0.98426 26.1326 0.915841 26.0677 0.915841 25.988V2.46579C0.915841 2.38602 0.98426 2.32122 1.06848 2.32122H7.18407V2.84908C7.18407 3.40701 7.66346 3.86104 8.25255 3.86104H13.7476C14.3367 3.86104 14.8161 3.40701 14.8161 2.84908V2.32122H20.9315C21.0156 2.32122 21.0842 2.38602 21.0842 2.46579V25.988ZM6.79144 16.9197H5.28561C4.86466 16.9197 4.52241 17.2439 4.52241 17.6425V19.0687C4.52241 19.4674 4.86466 19.7915 5.28561 19.7915H6.79144C7.21239 19.7915 7.55464 19.4674 7.55464 19.0687V17.6425C7.55464 17.2439 7.21239 16.9197 6.79144 16.9197ZM6.6388 18.9241H5.43825V17.7871H6.6388V18.9241ZM17.4777 18.3555C17.4777 18.5949 17.2726 18.7892 17.0198 18.7892H9.16094C8.90813 18.7892 8.70302 18.5949 8.70302 18.3555C8.70302 18.116 8.90813 17.9218 9.16094 17.9218H17.0198C17.2726 17.9218 17.4777 18.116 17.4777 18.3555ZM6.79144 20.926H5.28561C4.86466 20.926 4.52241 21.2502 4.52241 21.6488V23.075C4.52241 23.4737 4.86466 23.7978 5.28561 23.7978H6.79144C7.21239 23.7978 7.55464 23.4737 7.55464 23.075V21.6488C7.55464 21.2502 7.21239 20.926 6.79144 20.926ZM6.6388 22.9304H5.43825V21.7934H6.6388V22.9304ZM17.4777 22.3621C17.4777 22.6015 17.2726 22.7958 17.0198 22.7958H9.16094C8.90813 22.7958 8.70302 22.6015 8.70302 22.3621C8.70302 22.1226 8.90813 21.9284 9.16094 21.9284H17.0198C17.2726 21.9284 17.4777 22.1226 17.4777 22.3621ZM18.1655 10.5179C18.116 10.2827 17.8736 10.1305 17.6271 10.177L16.5225 10.3847C16.5078 10.3478 16.4961 10.3105 16.4799 10.2738C16.4307 9.92132 16.3249 9.57148 16.1654 9.2328C16.1314 9.16052 16.1153 9.07412 16.1174 8.97558L16.1651 6.72776C16.1702 6.47492 16.0461 6.2328 15.8333 6.08005C15.6198 5.92744 15.3408 5.88014 15.0847 5.95369L12.7766 6.61793C11.6258 6.30706 10.3746 6.30706 9.22325 6.61793L6.91546 5.95384C6.65937 5.88042 6.37943 5.92729 6.16657 6.08033C5.95341 6.23308 5.82969 6.47534 5.83506 6.72805L5.88276 8.97459C5.88484 9.07355 5.86845 9.16024 5.83446 9.23252C5.67496 9.57106 5.56943 9.92104 5.52053 10.2738C5.50429 10.3105 5.49257 10.3479 5.47783 10.3848L4.37305 10.177C4.12501 10.1303 3.88398 10.283 3.83478 10.5179C3.78544 10.7528 3.94673 10.9811 4.19477 11.0277L5.2737 11.2306C5.26666 11.3124 5.26057 11.3942 5.26057 11.4764C5.26057 11.6782 5.28882 11.8749 5.3299 12.0688L4.19477 12.2822C3.94673 12.3288 3.78544 12.5571 3.83478 12.792C3.87801 12.9984 4.06941 13.1414 4.28346 13.1414C4.31298 13.1414 4.34294 13.1386 4.37305 13.1329L5.63611 12.8955C6.45696 14.415 8.54842 15.5002 11.0001 15.5002C13.4517 15.5002 15.5432 14.415 16.364 12.8955L17.6271 13.1329C17.6572 13.1386 17.687 13.1414 17.7168 13.1414C17.9309 13.1414 18.122 12.9984 18.1655 12.792C18.2147 12.5571 18.0534 12.3288 17.8054 12.2822L16.6702 12.0688C16.7113 11.8749 16.7396 11.6782 16.7396 11.4764C16.7396 11.3942 16.7335 11.3123 16.7264 11.2306L17.8054 11.0277C18.0534 10.9811 18.2147 10.7528 18.1655 10.5179ZM15.775 11.9005L15.0313 11.7607C14.786 11.7148 14.5424 11.8666 14.4929 12.1016C14.4437 12.3366 14.605 12.5648 14.853 12.6114L15.4319 12.7203C14.6926 13.8438 12.985 14.6328 11.0001 14.6328C9.01506 14.6328 7.30748 13.8438 6.56818 12.7202L7.14681 12.6114C7.39485 12.5648 7.55613 12.3366 7.50694 12.1016C7.45745 11.8664 7.21418 11.7138 6.96853 11.7607L6.22517 11.9005C6.19642 11.7614 6.17641 11.6205 6.17641 11.4764C6.17641 11.4513 6.17976 11.4263 6.18069 11.4012L6.96853 11.5494C6.99864 11.555 7.02845 11.5578 7.05826 11.5578C7.27232 11.5578 7.46342 11.4148 7.50694 11.2084C7.55613 10.9735 7.39485 10.7452 7.14681 10.6986L6.38802 10.5559C6.40503 10.5179 6.41731 10.478 6.42206 10.4368C6.45605 10.1503 6.53982 9.864 6.671 9.58588C6.76014 9.39685 6.80307 9.18565 6.7986 8.95779L6.75298 6.8136L9.0885 7.48574C9.17644 7.51129 9.26976 7.51087 9.35711 7.48518C10.4172 7.17459 11.5832 7.17459 12.6427 7.48518C12.7304 7.51087 12.8234 7.51129 12.9114 7.48574L15.2472 6.81346L15.2016 8.95793C15.1968 9.18494 15.2394 9.39628 15.3289 9.58616C15.46 9.86471 15.5441 10.151 15.5784 10.4372C15.5831 10.4782 15.5954 10.5179 15.6122 10.5559L14.853 10.6986C14.605 10.7452 14.4437 10.9735 14.4929 11.2084C14.5364 11.4148 14.7275 11.5578 14.9416 11.5578C14.9714 11.5578 15.0012 11.555 15.0313 11.5494L15.8195 11.4012C15.8204 11.4263 15.8237 11.4513 15.8237 11.4764C15.8237 11.6206 15.8037 11.7614 15.775 11.9005ZM12.0373 12.4744C12.0352 12.4744 12.0331 12.4744 12.0307 12.4744C11.8098 12.482 11.6622 12.4347 11.5758 12.3476C11.4841 12.2555 11.463 12.1167 11.4585 12.0389C11.4587 12.0311 11.4588 12.0246 11.4589 12.0174L11.826 11.5507C11.8875 11.4719 11.8972 11.3671 11.8512 11.2795C11.8047 11.1917 11.71 11.1365 11.6063 11.1365H10.3937C10.29 11.1365 10.1954 11.1917 10.1488 11.2795C10.1029 11.3671 10.1125 11.4719 10.174 11.5507L10.5413 12.0176C10.5414 12.0246 10.5415 12.0308 10.5417 12.0383C10.5373 12.1159 10.5164 12.2551 10.4244 12.3474C10.3403 12.4319 10.1942 12.4745 9.98943 12.4745C9.98049 12.4745 9.97035 12.4745 9.9626 12.4744C9.71277 12.4744 9.50826 12.6645 9.50468 12.9018C9.50136 13.1245 9.67638 13.3081 9.90396 13.336L10.0395 13.8703C10.0464 13.8956 10.0574 13.9341 10.081 13.9799C10.1361 14.0863 10.3639 14.4309 10.9822 14.4309C10.9923 14.4311 11.0016 14.4309 11.0114 14.4309C11.6381 14.4309 11.8649 14.085 11.9195 13.9786C11.9422 13.9351 11.9535 13.896 11.9609 13.868L12.0959 13.336C12.3235 13.3081 12.4985 13.1245 12.4952 12.9018C12.4916 12.6645 12.2874 12.4744 12.0373 12.4744ZM11.2278 13.6636C11.2028 13.6813 11.1366 13.7081 11.0048 13.7081C11.0001 13.708 10.9944 13.7078 10.9887 13.7081C10.8582 13.7081 10.7929 13.6796 10.7732 13.6677L10.66 13.2214C10.8003 13.1648 10.9123 13.0949 11 13.0232C11.0877 13.0949 11.1996 13.1648 11.3399 13.2213L11.2278 13.6636ZM9.60604 10.3226C9.60604 10.5956 9.37226 10.817 9.0838 10.817C8.79549 10.817 8.56158 10.5956 8.56158 10.3226C8.56158 10.0494 8.79549 9.82795 9.0838 9.82795C9.37226 9.82795 9.60604 10.0494 9.60604 10.3226ZM13.4384 10.3226C13.4384 10.5956 13.2047 10.817 12.9162 10.817C12.6279 10.817 12.3941 10.5956 12.3941 10.3226C12.3941 10.0494 12.6279 9.82795 12.9162 9.82795C13.2047 9.82795 13.4384 10.0494 13.4384 10.3226Z" fill="black"/>
</svg>
