<svg width="37" height="26" viewBox="0 0 37 26" fill="none" xmlns="http://www.w3.org/2000/svg">
<path d="M34.8519 0H2.14814C0.963652 0 0 0.960443 0 2.14099V23.859C0 25.0394 0.963652 26 2.14814 26H34.8519C36.0362 26 37 25.0394 37 23.859V2.14099C37 0.960443 36.0362 0 34.8519 0ZM35.8283 23.859C35.8283 24.3958 35.3904 24.8322 34.8519 24.8322H2.14814C1.60977 24.8322 1.17172 24.3958 1.17172 23.859V5.30705H35.8283V23.859ZM35.8283 4.13924H1.17172V2.14099C1.17172 1.60441 1.60977 1.16781 2.14814 1.16781H34.8519C35.3904 1.16781 35.8283 1.60441 35.8283 2.14099V4.13924ZM3.22241 17.5862C3.27771 17.8641 3.52239 18.0564 3.79644 18.0564C3.8342 18.0564 3.87253 18.053 3.91106 18.0454L5.30805 17.769C6.27227 19.5948 8.66903 20.8935 11.473 20.8935C14.2769 20.8935 16.6735 19.5948 17.6377 17.769L19.0345 18.0454C19.073 18.053 19.1111 18.0564 19.1493 18.0564C19.4231 18.0564 19.6676 17.8641 19.7233 17.5862C19.7862 17.2699 19.5799 16.9628 19.2625 16.8996L18.0271 16.6552C18.0671 16.4377 18.095 16.2174 18.095 15.9919C18.095 15.91 18.0881 15.8286 18.0827 15.7471L19.2625 15.5136C19.5799 15.4505 19.7862 15.1434 19.7233 14.8271C19.6596 14.5104 19.3491 14.3044 19.0345 14.3679L17.8249 14.6072C17.8146 14.5812 17.8072 14.5546 17.7964 14.5287C17.7388 14.101 17.6167 13.6771 17.4333 13.2677C17.3988 13.1905 17.3816 13.0929 17.3837 12.9853L17.4382 10.2822C17.4449 9.95796 17.2939 9.64757 17.0345 9.45199C16.7753 9.25621 16.4347 9.19596 16.1231 9.29005L13.503 10.0836C12.1871 9.71296 10.7588 9.71296 9.44295 10.0836L6.82261 9.29005C6.51099 9.19577 6.17019 9.25621 5.91121 9.45199C5.65185 9.64757 5.50081 9.95796 5.50748 10.2822L5.56202 12.9849C5.56412 13.0925 5.54696 13.1904 5.51225 13.2677C5.32879 13.6783 5.20692 14.1018 5.14952 14.529C5.1387 14.5549 5.13131 14.5813 5.12108 14.6073L3.91106 14.3679C3.59296 14.3059 3.28534 14.5108 3.22241 14.8271C3.15928 15.1434 3.36563 15.4505 3.68297 15.5136L4.86305 15.7471C4.85762 15.8286 4.85068 15.91 4.85068 15.9919C4.85068 16.2174 4.8786 16.4377 4.91862 16.6552L3.68297 16.8996C3.36563 16.9628 3.15928 17.2699 3.22241 17.5862ZM6.02323 15.9767L6.85331 16.1409C6.89184 16.1485 6.93017 16.1519 6.96793 16.1519C7.24179 16.1519 7.48666 15.9595 7.54196 15.6817C7.60509 15.3654 7.39874 15.0582 7.0814 14.9951L6.27899 14.8364C6.28712 14.807 6.2995 14.7789 6.30293 14.7484C6.34107 14.4108 6.43528 14.0725 6.58251 13.7433C6.68816 13.5068 6.73908 13.2438 6.73336 12.9615L6.6832 10.4683L9.27036 11.2518C9.3823 11.286 9.50226 11.2852 9.61402 11.251C10.8126 10.8808 12.1329 10.8808 13.3319 11.251C13.4438 11.2852 13.5634 11.286 13.6755 11.2518L16.2625 10.4683L16.2124 12.9619C16.2066 13.2443 16.2576 13.5074 16.3634 13.7437C16.5104 14.0721 16.6044 14.4101 16.6432 14.7488C16.6466 14.779 16.6589 14.8071 16.6669 14.8363L15.8643 14.9951C15.547 15.0582 15.3406 15.3654 15.4037 15.6817C15.4591 15.9595 15.7039 16.1519 15.9778 16.1519C16.0155 16.1519 16.0539 16.1485 16.0924 16.1409L16.9225 15.9766C16.9225 15.9817 16.9233 15.9868 16.9233 15.9919C16.9233 16.1399 16.9072 16.2852 16.8827 16.4288L16.0924 16.2724C15.7743 16.2101 15.4667 16.4157 15.4037 16.7316C15.3406 17.0479 15.547 17.3551 15.8643 17.4182L16.4332 17.5307C15.5753 18.8231 13.6771 19.7257 11.473 19.7257C9.26888 19.7257 7.37054 18.8231 6.51257 17.5307L7.0814 17.4182C7.39874 17.3551 7.60509 17.0479 7.54196 16.7316C7.47903 16.4153 7.17161 16.2093 6.85331 16.2724L6.06304 16.4288C6.03846 16.2852 6.0224 16.1399 6.0224 15.9919C6.0224 15.9868 6.02321 15.9817 6.02323 15.9767ZM10.8866 16.6675C10.8856 16.6248 10.886 16.589 10.8872 16.5606L10.5288 16.0811C10.4585 15.9864 10.4475 15.8603 10.5001 15.755C10.5533 15.6493 10.6614 15.5829 10.7799 15.5829H12.1658C12.2843 15.5829 12.3925 15.6493 12.4457 15.755C12.4982 15.8603 12.4872 15.9864 12.4169 16.0811L12.0585 16.5606C12.0596 16.5883 12.0602 16.6226 12.0593 16.6638C12.0636 16.7478 12.0838 16.8996 12.1766 16.997C12.2847 17.1106 12.492 17.127 12.6501 17.1296C12.9764 17.1232 13.2398 17.3824 13.2443 17.7052C13.2489 18.0275 12.9905 18.2929 12.6669 18.2975C12.6541 18.2975 12.6415 18.2978 12.6289 18.2978C12.0764 18.2978 11.7101 18.1226 11.4728 17.9328C11.2355 18.1225 10.8692 18.2975 10.3168 18.2978C10.3042 18.2978 10.2916 18.2975 10.2788 18.2975C9.95519 18.2929 9.69678 18.0275 9.70136 17.7052C9.70594 17.3824 9.96816 17.1251 10.2956 17.1296C10.4522 17.1266 10.661 17.1106 10.7691 16.997C10.8604 16.9011 10.8819 16.7522 10.8866 16.6675ZM8.68605 14.604C8.68605 14.2754 8.95338 14.0091 9.28287 14.0091C9.61254 14.0091 9.87972 14.2754 9.87972 14.604C9.87972 14.9324 9.61254 15.1987 9.28287 15.1987C8.95338 15.1987 8.68605 14.9324 8.68605 14.604ZM13.0662 14.604C13.0662 14.2754 13.3333 14.0091 13.6629 14.0091C13.9925 14.0091 14.2597 14.2754 14.2597 14.604C14.2597 14.9324 13.9925 15.1987 13.6629 15.1987C13.3333 15.1987 13.0662 14.9324 13.0662 14.604ZM20.7657 9.3522C20.7657 9.02964 21.0281 8.76829 21.3516 8.76829H21.7421C22.0656 8.76829 22.328 9.02964 22.328 9.3522C22.328 9.35218 22.328 9.35222 22.328 9.3522C22.328 9.67473 22.0656 9.93611 21.7421 9.93611H21.3516C21.0281 9.93611 20.7657 9.67475 20.7657 9.3522ZM29.5482 9.35227C29.5482 9.35229 29.5482 9.35225 29.5482 9.35227C29.5482 9.02972 29.8107 8.76829 30.1341 8.76829H30.8969C31.2204 8.76829 31.4828 9.02964 31.4828 9.3522C31.4828 9.35218 31.4828 9.35222 31.4828 9.3522C31.4827 9.67473 31.2204 9.93611 30.8969 9.93611H30.1341C29.8107 9.93611 29.5483 9.6748 29.5482 9.35227ZM27.2594 9.35227C27.2594 9.35229 27.2594 9.35225 27.2594 9.35227C27.2594 9.02972 27.5218 8.76829 27.8452 8.76829H28.608C28.9315 8.76829 29.1939 9.02964 29.1939 9.3522C29.1939 9.35218 29.1939 9.35222 29.1939 9.3522C29.1939 9.67473 28.9315 9.93611 28.608 9.93611H27.8452C27.5218 9.93611 27.2594 9.6748 27.2594 9.35227ZM24.9708 9.35227C24.9708 9.35229 24.9708 9.35225 24.9708 9.35227C24.9708 9.02972 25.2333 8.76829 25.5567 8.76829H26.3195C26.643 8.76829 26.9054 9.02964 26.9054 9.3522C26.9054 9.35218 26.9054 9.35222 26.9054 9.3522C26.9054 9.67473 26.643 9.93611 26.3195 9.93611H25.5567C25.2333 9.93611 24.9709 9.6748 24.9708 9.35227ZM22.682 9.35227C22.682 9.35229 22.682 9.35225 22.682 9.35227C22.682 9.02972 22.9444 8.76829 23.2678 8.76829H24.0307C24.3541 8.76829 24.6165 9.02964 24.6165 9.3522C24.6165 9.35218 24.6165 9.35222 24.6165 9.3522C24.6165 9.67473 24.3541 9.93611 24.0307 9.93611H23.2678C22.9444 9.93611 22.682 9.6748 22.682 9.35227ZM31.8371 9.35227C31.8371 9.35229 31.8371 9.35225 31.8371 9.35227C31.8371 9.02972 32.0995 8.76829 32.423 8.76829H32.8136C33.137 8.76829 33.3994 9.02964 33.3994 9.3522C33.3994 9.67475 33.137 9.93611 32.8136 9.93611H32.423C32.0996 9.93611 31.8372 9.6748 31.8371 9.35227ZM24.8175 13.2337C24.8175 12.9111 25.0799 12.6498 25.4034 12.6498H33.203C33.5264 12.6498 33.7888 12.9111 33.7888 13.2337C33.7888 13.5563 33.5264 13.8178 33.203 13.8178H25.4034C25.0799 13.8178 24.8175 13.5563 24.8175 13.2337ZM24.8175 17.1152C24.8175 16.7928 25.0799 16.5313 25.4034 16.5313H33.203C33.5264 16.5313 33.7888 16.7928 33.7888 17.1152C33.7888 17.4376 33.5264 17.6991 33.203 17.6991H25.4034C25.0799 17.6991 24.8175 17.4376 24.8175 17.1152ZM19.7649 20.4126H33.203C33.5264 20.4126 33.7888 20.6741 33.7888 20.9965C33.7888 21.3189 33.5264 21.5804 33.203 21.5804H19.7649C19.4414 21.5804 19.179 21.3189 19.179 20.9965C19.179 20.6741 19.4414 20.4126 19.7649 20.4126Z" fill="black"/>
</svg>
